<svg width="115" height="21" viewBox="0 0 115 21" fill="none" xmlns="http://www.w3.org/2000/svg">
<path d="M9.53 20.26C8.16067 20.26 6.89533 20.0347 5.734 19.584C4.59 19.116 3.59333 18.466 2.744 17.634C1.912 16.7847 1.262 15.788 0.794 14.644C0.343333 13.4827 0.118 12.2173 0.118 10.848C0.118 9.496 0.352 8.248 0.82 7.104C1.30533 5.96 1.98133 4.96333 2.848 4.114C3.71467 3.26467 4.72867 2.606 5.89 2.138C7.06867 1.67 8.34267 1.436 9.712 1.436C10.5787 1.436 11.428 1.54867 12.26 1.774C13.092 1.99933 13.8633 2.33733 14.574 2.788C15.302 3.22133 15.926 3.75 16.446 4.374L13.716 7.468C13.1787 6.87867 12.572 6.41933 11.896 6.09C11.2373 5.76067 10.5007 5.596 9.686 5.596C8.99267 5.596 8.334 5.71733 7.71 5.96C7.10333 6.20267 6.57467 6.558 6.124 7.026C5.67333 7.494 5.318 8.04867 5.058 8.69C4.798 9.33133 4.668 10.0593 4.668 10.874C4.668 11.6713 4.78933 12.3993 5.032 13.058C5.292 13.6993 5.656 14.254 6.124 14.722C6.60933 15.1727 7.18133 15.5193 7.84 15.762C8.516 16.0047 9.26133 16.126 10.076 16.126C10.6133 16.126 11.1247 16.0567 11.61 15.918C12.1127 15.762 12.5807 15.5453 13.014 15.268C13.4473 14.9907 13.82 14.6787 14.132 14.332L16.29 17.764C15.874 18.232 15.302 18.6567 14.574 19.038C13.8633 19.4193 13.066 19.7227 12.182 19.948C11.3153 20.156 10.4313 20.26 9.53 20.26ZM25.3473 20.26C23.926 20.26 22.652 19.9567 21.5253 19.35C20.3987 18.726 19.5147 17.8767 18.8733 16.802C18.232 15.71 17.9113 14.4793 17.9113 13.11C17.9113 11.706 18.232 10.4667 18.8733 9.392C19.5147 8.3 20.3987 7.45067 21.5253 6.844C22.652 6.22 23.926 5.908 25.3473 5.908C26.786 5.908 28.06 6.22 29.1693 6.844C30.296 7.45067 31.18 8.3 31.8213 9.392C32.4627 10.4667 32.7833 11.706 32.7833 13.11C32.7833 14.4793 32.4627 15.71 31.8213 16.802C31.18 17.8767 30.296 18.726 29.1693 19.35C28.06 19.9567 26.786 20.26 25.3473 20.26ZM25.3473 16.672C25.9713 16.672 26.5173 16.516 26.9853 16.204C27.4707 15.892 27.852 15.4673 28.1293 14.93C28.4067 14.3927 28.5367 13.786 28.5193 13.11C28.5367 12.3993 28.4067 11.7753 28.1293 11.238C27.852 10.6833 27.4707 10.2587 26.9853 9.964C26.5173 9.652 25.9713 9.496 25.3473 9.496C24.7407 9.496 24.1947 9.652 23.7093 9.964C23.224 10.276 22.8427 10.7007 22.5653 11.238C22.288 11.7753 22.1493 12.3993 22.1493 13.11C22.1493 13.786 22.288 14.3927 22.5653 14.93C22.8427 15.4673 23.224 15.892 23.7093 16.204C24.1947 16.516 24.7407 16.672 25.3473 16.672ZM42.8622 20V11.524C42.8622 10.8133 42.6629 10.2933 42.2642 9.964C41.8829 9.61733 41.3455 9.444 40.6522 9.444C39.9762 9.444 39.3695 9.574 38.8322 9.834C38.3122 10.0767 37.8095 10.484 37.3242 11.056L34.8282 8.638C35.6602 7.78867 36.6135 7.12133 37.6882 6.636C38.7629 6.15067 39.9329 5.908 41.1982 5.908C42.3595 5.908 43.3649 6.08133 44.2142 6.428C45.0635 6.77467 45.7222 7.30333 46.1902 8.014C46.6582 8.72467 46.8922 9.626 46.8922 10.718V20H42.8622ZM39.2742 20.26C38.4075 20.26 37.6189 20.0867 36.9082 19.74C36.2149 19.3933 35.6602 18.9167 35.2442 18.31C34.8455 17.686 34.6462 16.958 34.6462 16.126C34.6462 15.4153 34.7762 14.7913 35.0362 14.254C35.2962 13.7167 35.6775 13.2747 36.1802 12.928C36.7002 12.564 37.3415 12.2953 38.1042 12.122C38.8842 11.9313 39.7855 11.836 40.8082 11.836H44.9942L44.7602 14.462H40.9122C40.5482 14.462 40.2275 14.4967 39.9502 14.566C39.6729 14.618 39.4389 14.7133 39.2482 14.852C39.0575 14.9733 38.9102 15.1207 38.8062 15.294C38.7195 15.4673 38.6762 15.6753 38.6762 15.918C38.6762 16.178 38.7455 16.4033 38.8842 16.594C39.0229 16.7847 39.2049 16.932 39.4302 17.036C39.6729 17.14 39.9502 17.192 40.2622 17.192C40.7129 17.192 41.1375 17.1227 41.5362 16.984C41.9522 16.828 42.3162 16.6113 42.6282 16.334C42.9575 16.0567 43.2175 15.736 43.4082 15.372L44.1362 17.244C43.7722 17.8333 43.3302 18.3533 42.8102 18.804C42.3075 19.2547 41.7529 19.61 41.1462 19.87C40.5569 20.13 39.9329 20.26 39.2742 20.26ZM56.2888 20.26C54.9541 20.26 53.7494 19.948 52.6748 19.324C51.6174 18.7 50.7854 17.8507 50.1788 16.776C49.5721 15.684 49.2688 14.462 49.2688 13.11C49.2688 11.7233 49.5721 10.4927 50.1788 9.418C50.7854 8.326 51.6174 7.468 52.6748 6.844C53.7494 6.22 54.9541 5.908 56.2888 5.908C57.5194 5.908 58.6461 6.13333 59.6688 6.584C60.7088 7.01733 61.5234 7.61533 62.1128 8.378L59.8508 11.134C59.6254 10.8393 59.3481 10.5707 59.0188 10.328C58.6894 10.0853 58.3254 9.89467 57.9268 9.756C57.5281 9.61733 57.1121 9.548 56.6788 9.548C56.0201 9.548 55.4394 9.704 54.9368 10.016C54.4341 10.3107 54.0441 10.7267 53.7668 11.264C53.4894 11.8013 53.3508 12.408 53.3508 13.084C53.3508 13.7427 53.4894 14.3407 53.7668 14.878C54.0614 15.398 54.4601 15.814 54.9628 16.126C55.4654 16.438 56.0288 16.594 56.6528 16.594C57.1034 16.594 57.5194 16.5333 57.9008 16.412C58.2821 16.2907 58.6288 16.1173 58.9408 15.892C59.2701 15.6667 59.5734 15.398 59.8508 15.086L62.1128 17.842C61.5234 18.57 60.7001 19.1593 59.6428 19.61C58.5854 20.0433 57.4674 20.26 56.2888 20.26ZM64.3987 20V0.76H68.5327V9.002L67.6747 9.314C67.8654 8.69 68.2034 8.12667 68.6887 7.624C69.1914 7.104 69.7894 6.688 70.4827 6.376C71.1761 6.064 71.9041 5.908 72.6667 5.908C73.7067 5.908 74.5821 6.12467 75.2927 6.558C76.0034 6.974 76.5321 7.60667 76.8787 8.456C77.2427 9.288 77.4247 10.3193 77.4247 11.55V20H73.2387V11.862C73.2387 11.3073 73.1607 10.848 73.0047 10.484C72.8487 10.12 72.6147 9.85133 72.3027 9.678C71.9907 9.50467 71.6007 9.42667 71.1327 9.444C70.7687 9.444 70.4307 9.50467 70.1187 9.626C69.8067 9.73 69.5294 9.89467 69.2867 10.12C69.0614 10.328 68.8881 10.5707 68.7667 10.848C68.6454 11.1253 68.5847 11.4373 68.5847 11.784V20H66.4787C66.0281 20 65.6207 20 65.2567 20C64.9101 20 64.6241 20 64.3987 20ZM89.638 20.26C88.2687 20.26 87.0034 20.026 85.842 19.558C84.698 19.09 83.7014 18.44 82.852 17.608C82.02 16.7587 81.37 15.762 80.902 14.618C80.434 13.4567 80.2 12.2 80.2 10.848C80.2 9.47867 80.434 8.222 80.902 7.078C81.37 5.91667 82.02 4.91133 82.852 4.062C83.7014 3.21267 84.698 2.554 85.842 2.086C87.0034 1.618 88.2687 1.384 89.638 1.384C90.99 1.384 92.238 1.618 93.382 2.086C94.526 2.554 95.514 3.21267 96.346 4.062C97.1954 4.91133 97.854 5.91667 98.322 7.078C98.79 8.222 99.024 9.47867 99.024 10.848C99.024 12.2 98.79 13.448 98.322 14.592C97.854 15.736 97.1954 16.7327 96.346 17.582C95.514 18.4313 94.526 19.09 93.382 19.558C92.238 20.026 90.99 20.26 89.638 20.26ZM89.638 16.074C90.3487 16.074 90.9987 15.944 91.588 15.684C92.1774 15.424 92.6887 15.06 93.122 14.592C93.5727 14.124 93.9194 13.5693 94.162 12.928C94.4047 12.2867 94.526 11.5933 94.526 10.848C94.526 10.0853 94.4047 9.38333 94.162 8.742C93.9194 8.10067 93.5727 7.546 93.122 7.078C92.6887 6.59267 92.1774 6.22 91.588 5.96C90.9987 5.7 90.3487 5.57 89.638 5.57C88.9274 5.57 88.2687 5.7 87.662 5.96C87.0727 6.22 86.5527 6.59267 86.102 7.078C85.6687 7.546 85.3307 8.10067 85.088 8.742C84.8454 9.38333 84.724 10.0853 84.724 10.848C84.724 11.8533 84.932 12.7547 85.348 13.552C85.7814 14.332 86.362 14.9473 87.09 15.398C87.8354 15.8487 88.6847 16.074 89.638 16.074ZM101.977 20V6.194H105.955L106.111 9.002L105.253 9.314C105.444 8.69 105.782 8.12667 106.267 7.624C106.77 7.104 107.368 6.688 108.061 6.376C108.754 6.064 109.482 5.908 110.245 5.908C111.285 5.908 112.16 6.12467 112.871 6.558C113.582 6.974 114.11 7.60667 114.457 8.456C114.821 9.288 115.003 10.3193 115.003 11.55V20H110.817V11.862C110.817 11.3073 110.739 10.848 110.583 10.484C110.427 10.12 110.193 9.85133 109.881 9.678C109.569 9.50467 109.179 9.42667 108.711 9.444C108.347 9.444 108.009 9.50467 107.697 9.626C107.385 9.73 107.108 9.89467 106.865 10.12C106.64 10.328 106.466 10.5707 106.345 10.848C106.224 11.1253 106.163 11.4373 106.163 11.784V20H104.057C103.606 20 103.199 20 102.835 20C102.488 20 102.202 20 101.977 20Z" 
fill="#5340ff"/>
</svg>
